<mxfile host="Electron" modified="2024-12-14T01:24:20.598Z" agent="Mozilla/5.0 (Windows NT 10.0; Win64; x64) AppleWebKit/537.36 (KHTML, like Gecko) draw.io/24.6.4 Chrome/124.0.6367.207 Electron/30.0.6 Safari/537.36" etag="OdObfHZ8_DYQU4bpTdIc" version="24.6.4" type="device">
  <diagram id="C5RBs43oDa-KdzZeNtuy" name="Page-1">
    <mxGraphModel dx="1340" dy="1505" grid="1" gridSize="10" guides="1" tooltips="1" connect="1" arrows="1" fold="1" page="1" pageScale="1" pageWidth="827" pageHeight="1169" math="0" shadow="0">
      <root>
        <mxCell id="WIyWlLk6GJQsqaUBKTNV-0" />
        <mxCell id="WIyWlLk6GJQsqaUBKTNV-1" parent="WIyWlLk6GJQsqaUBKTNV-0" />
        <mxCell id="siWyhBhnACyM7Weuultx-2" value="window:UnifiedSearchApp(QtWidgets.QtWidget)" style="swimlane;fontStyle=1;align=center;verticalAlign=top;childLayout=stackLayout;horizontal=1;startSize=26;horizontalStack=0;resizeParent=1;resizeParentMax=0;resizeLast=0;collapsible=1;marginBottom=0;whiteSpace=wrap;html=1;" parent="WIyWlLk6GJQsqaUBKTNV-1" vertex="1">
          <mxGeometry x="70" y="170" width="330" height="310" as="geometry" />
        </mxCell>
        <mxCell id="siWyhBhnACyM7Weuultx-3" value="&lt;div&gt;+&amp;nbsp;headers: List&lt;/div&gt;+ table: QTableWidget&lt;div&gt;+ filtered_data: List&lt;/div&gt;&lt;div&gt;+&amp;nbsp;search_fields: Set&lt;/div&gt;&lt;div&gt;&lt;div&gt;+&amp;nbsp;MAX_ROWS_IN_TABLE: int (1_000_000)&lt;/div&gt;&lt;/div&gt;" style="text;strokeColor=none;fillColor=none;align=left;verticalAlign=top;spacingLeft=4;spacingRight=4;overflow=hidden;rotatable=0;points=[[0,0.5],[1,0.5]];portConstraint=eastwest;whiteSpace=wrap;html=1;" parent="siWyhBhnACyM7Weuultx-2" vertex="1">
          <mxGeometry y="26" width="330" height="94" as="geometry" />
        </mxCell>
        <mxCell id="siWyhBhnACyM7Weuultx-4" value="" style="line;strokeWidth=1;fillColor=none;align=left;verticalAlign=middle;spacingTop=-1;spacingLeft=3;spacingRight=3;rotatable=0;labelPosition=right;points=[];portConstraint=eastwest;strokeColor=inherit;" parent="siWyhBhnACyM7Weuultx-2" vertex="1">
          <mxGeometry y="120" width="330" height="8" as="geometry" />
        </mxCell>
        <mxCell id="siWyhBhnACyM7Weuultx-5" value="&lt;div&gt;+ initUI(self) -&amp;gt; void&lt;/div&gt;&lt;div&gt;+&amp;nbsp;open_file_dialog(self) -&amp;gt; void&lt;/div&gt;&lt;div&gt;+&amp;nbsp;load_csv_data(self, file_path)&amp;nbsp;-&amp;gt; void&lt;br&gt;+&amp;nbsp;on_csv_loaded(self, headers, rows) -&amp;gt; void&lt;/div&gt;&lt;div&gt;+ on_csv_load_error(self, error_message)&lt;span style=&quot;background-color: initial;&quot;&gt;&amp;nbsp;&lt;/span&gt;&lt;span style=&quot;background-color: initial;&quot;&gt;-&amp;gt; void&lt;/span&gt;&lt;/div&gt;&lt;div&gt;+&amp;nbsp;update_table(self, rows) -&amp;gt; void&lt;/div&gt;&lt;div&gt;+&amp;nbsp;update_search_fields(self)&lt;span style=&quot;background-color: initial;&quot;&gt;&amp;nbsp;&lt;/span&gt;&lt;span style=&quot;background-color: initial;&quot;&gt;-&amp;gt; void&lt;/span&gt;&lt;/div&gt;&lt;div&gt;+&amp;nbsp;perform_general_search(self)&lt;span style=&quot;background-color: initial;&quot;&gt;&amp;nbsp;&lt;/span&gt;&lt;span style=&quot;background-color: initial;&quot;&gt;-&amp;gt; void&lt;/span&gt;&lt;/div&gt;&lt;div&gt;+&amp;nbsp;perform_column_search(self)&lt;span style=&quot;background-color: initial;&quot;&gt;&amp;nbsp;&lt;/span&gt;&lt;span style=&quot;background-color: initial;&quot;&gt;-&amp;gt; void&lt;/span&gt;&lt;/div&gt;&lt;div&gt;+ export_filtered_data(self)&lt;span style=&quot;background-color: initial;&quot;&gt;&amp;nbsp;&lt;/span&gt;&lt;span style=&quot;background-color: initial;&quot;&gt;-&amp;gt; void&lt;/span&gt;&lt;br&gt;&lt;/div&gt;&lt;div&gt;+&amp;nbsp;populate_column_selector(self)&lt;span style=&quot;background-color: initial;&quot;&gt;&amp;nbsp;&lt;/span&gt;&lt;span style=&quot;background-color: initial;&quot;&gt;-&amp;gt; void&lt;/span&gt;&lt;/div&gt;&lt;div&gt;+&amp;nbsp;update_graph(self)&lt;span style=&quot;background-color: initial;&quot;&gt;&amp;nbsp;&lt;/span&gt;&lt;span style=&quot;background-color: initial;&quot;&gt;-&amp;gt; void&lt;/span&gt;&lt;/div&gt;&lt;div&gt;&lt;br&gt;&lt;/div&gt;" style="text;strokeColor=none;fillColor=none;align=left;verticalAlign=top;spacingLeft=4;spacingRight=4;overflow=hidden;rotatable=0;points=[[0,0.5],[1,0.5]];portConstraint=eastwest;whiteSpace=wrap;html=1;labelBackgroundColor=none;" parent="siWyhBhnACyM7Weuultx-2" vertex="1">
          <mxGeometry y="128" width="330" height="182" as="geometry" />
        </mxCell>
        <mxCell id="siWyhBhnACyM7Weuultx-11" value="app:QtWidgets.QApplication" style="rounded=0;whiteSpace=wrap;html=1;" parent="WIyWlLk6GJQsqaUBKTNV-1" vertex="1">
          <mxGeometry x="80" y="100" width="630" height="30" as="geometry" />
        </mxCell>
        <mxCell id="siWyhBhnACyM7Weuultx-32" style="edgeStyle=orthogonalEdgeStyle;rounded=0;orthogonalLoop=1;jettySize=auto;html=1;entryX=0.247;entryY=1.012;entryDx=0;entryDy=0;entryPerimeter=0;endArrow=diamondThin;endFill=1;strokeWidth=1;endSize=9;startSize=9;" parent="WIyWlLk6GJQsqaUBKTNV-1" source="siWyhBhnACyM7Weuultx-2" target="siWyhBhnACyM7Weuultx-11" edge="1">
          <mxGeometry relative="1" as="geometry" />
        </mxCell>
        <mxCell id="9oIM4pWAW8G10rMaeugF-0" value="CSVLoaderThread(QtCore.QThread)" style="swimlane;fontStyle=1;align=center;verticalAlign=top;childLayout=stackLayout;horizontal=1;startSize=26;horizontalStack=0;resizeParent=1;resizeParentMax=0;resizeLast=0;collapsible=1;marginBottom=0;whiteSpace=wrap;html=1;" parent="WIyWlLk6GJQsqaUBKTNV-1" vertex="1">
          <mxGeometry x="464" y="290" width="276" height="108" as="geometry" />
        </mxCell>
        <mxCell id="9oIM4pWAW8G10rMaeugF-1" value="&lt;div&gt;+&amp;nbsp;data_loaded: QtCore.pyqtSignal(list, list)&lt;/div&gt;&lt;div&gt;+&amp;nbsp;error_occurred: QtCore.pyqtSignal(str)&lt;/div&gt;" style="text;strokeColor=none;fillColor=none;align=left;verticalAlign=top;spacingLeft=4;spacingRight=4;overflow=hidden;rotatable=0;points=[[0,0.5],[1,0.5]];portConstraint=eastwest;whiteSpace=wrap;html=1;" parent="9oIM4pWAW8G10rMaeugF-0" vertex="1">
          <mxGeometry y="26" width="276" height="44" as="geometry" />
        </mxCell>
        <mxCell id="9oIM4pWAW8G10rMaeugF-2" value="" style="line;strokeWidth=1;fillColor=none;align=left;verticalAlign=middle;spacingTop=-1;spacingLeft=3;spacingRight=3;rotatable=0;labelPosition=right;points=[];portConstraint=eastwest;strokeColor=inherit;" parent="9oIM4pWAW8G10rMaeugF-0" vertex="1">
          <mxGeometry y="70" width="276" height="8" as="geometry" />
        </mxCell>
        <mxCell id="9oIM4pWAW8G10rMaeugF-3" value="&lt;div&gt;+ run(self) -&amp;gt; void&lt;br&gt;&lt;/div&gt;" style="text;strokeColor=none;fillColor=none;align=left;verticalAlign=top;spacingLeft=4;spacingRight=4;overflow=hidden;rotatable=0;points=[[0,0.5],[1,0.5]];portConstraint=eastwest;whiteSpace=wrap;html=1;labelBackgroundColor=none;" parent="9oIM4pWAW8G10rMaeugF-0" vertex="1">
          <mxGeometry y="78" width="276" height="30" as="geometry" />
        </mxCell>
        <mxCell id="9oIM4pWAW8G10rMaeugF-4" style="edgeStyle=orthogonalEdgeStyle;rounded=0;orthogonalLoop=1;jettySize=auto;html=1;endArrow=none;endFill=0;startArrow=diamondThin;startFill=1;startSize=9;endSize=9;entryX=0;entryY=0.5;entryDx=0;entryDy=0;" parent="WIyWlLk6GJQsqaUBKTNV-1" source="siWyhBhnACyM7Weuultx-5" target="9oIM4pWAW8G10rMaeugF-1" edge="1">
          <mxGeometry relative="1" as="geometry">
            <Array as="points">
              <mxPoint x="490" y="340" />
            </Array>
          </mxGeometry>
        </mxCell>
        <mxCell id="BzQdtAG6_rJSapa_OiuB-4" value="Class Diagram" style="shape=umlFrame;whiteSpace=wrap;html=1;pointerEvents=0;width=170;height=40;" vertex="1" parent="WIyWlLk6GJQsqaUBKTNV-1">
          <mxGeometry x="10" y="30" width="760" height="620" as="geometry" />
        </mxCell>
      </root>
    </mxGraphModel>
  </diagram>
</mxfile>
